<?xml version="1.0" encoding="utf-8"?>
<!-- Generator: Adobe Illustrator 17.1.0, SVG Export Plug-In . SVG Version: 6.00 Build 0)  -->
<!DOCTYPE svg PUBLIC "-//W3C//DTD SVG 1.1//EN" "http://www.w3.org/Graphics/SVG/1.1/DTD/svg11.dtd">
<svg version="1.1" id="レイヤー_1" xmlns="http://www.w3.org/2000/svg" xmlns:xlink="http://www.w3.org/1999/xlink" x="0px"
	 y="0px" viewBox="0 0 89.145 75.665" enable-background="new 0 0 89.145 75.665" xml:space="preserve">
<g>
	<path fill="#C7414E" d="M0.971,1.213C2.292,0.998,4.26,0.836,6.444,0.836c2.696,0,4.583,0.404,5.878,1.429
		c1.078,0.863,1.672,2.13,1.672,3.802c0,2.319-1.645,3.909-3.208,4.476v0.081c1.267,0.512,1.968,1.726,2.427,3.397
		c0.566,2.049,1.132,4.422,1.483,5.123h-4.206c-0.296-0.512-0.728-1.995-1.267-4.233c-0.485-2.265-1.267-2.885-2.939-2.912h-1.24
		v7.145H0.971V1.213z M5.042,9.032h1.618c2.049,0,3.262-1.025,3.262-2.615c0-1.672-1.132-2.507-3.02-2.534
		c-0.998,0-1.564,0.081-1.86,0.135V9.032z"/>
	<path fill="#C7414E" d="M30.077,14.91c0,1.726,0.054,3.128,0.108,4.233h-3.559l-0.189-1.86h-0.081
		c-0.512,0.809-1.753,2.157-4.125,2.157c-2.669,0-4.637-1.672-4.637-5.743V5.959h4.125v7.091c0,1.914,0.62,3.074,2.049,3.074
		c1.132,0,1.78-0.782,2.049-1.429c0.108-0.243,0.135-0.566,0.135-0.89V5.959h4.125V14.91z"/>
	<path fill="#C7414E" d="M34.182,19.143c0.054-0.863,0.108-2.454,0.108-3.936V0h4.098v7.522h0.054c0.782-1.132,2.157-1.86,3.99-1.86
		c3.154,0,5.473,2.615,5.446,6.659c0,4.745-3.02,7.118-6.039,7.118c-1.537,0-3.02-0.566-3.963-2.13h-0.054l-0.162,1.833H34.182z
		 M38.388,13.535c0,0.27,0.027,0.512,0.081,0.728c0.27,1.105,1.213,1.941,2.4,1.941c1.753,0,2.831-1.348,2.831-3.721
		c0-2.049-0.917-3.667-2.831-3.667c-1.105,0-2.13,0.836-2.4,2.022c-0.054,0.243-0.081,0.485-0.081,0.755V13.535z"/>
	<path fill="#C7414E" d="M53.922,5.959l1.968,6.471c0.216,0.782,0.485,1.752,0.647,2.453h0.081c0.189-0.701,0.405-1.699,0.593-2.453
		l1.618-6.471h4.395L60.15,14.64c-1.887,5.231-3.154,7.334-4.637,8.655c-1.429,1.24-2.939,1.672-3.963,1.806l-0.863-3.478
		c0.512-0.081,1.159-0.324,1.779-0.701c0.62-0.324,1.294-0.971,1.699-1.645c0.135-0.189,0.216-0.404,0.216-0.593
		c0-0.135-0.027-0.35-0.189-0.674L49.365,5.959H53.922z"/>
	<path fill="#C7414E" d="M16.339,39.146c-0.081-2.184-0.162-4.826-0.162-7.468h-0.081c-0.566,2.319-1.321,4.907-2.022,7.037
		l-2.211,7.091H8.655l-1.941-7.037c-0.593-2.13-1.213-4.718-1.645-7.091H5.015c-0.108,2.453-0.189,5.258-0.324,7.522l-0.324,6.902
		H0.566L1.725,27.93h5.473l1.78,6.066c0.566,2.103,1.132,4.368,1.537,6.498h0.081c0.512-2.103,1.132-4.503,1.726-6.525l1.941-6.039
		h5.365l0.998,18.172h-4.017L16.339,39.146z"/>
	<path fill="#C7414E" d="M37.604,39.362c0,4.826-3.424,7.037-6.956,7.037c-3.855,0-6.821-2.534-6.821-6.794
		c0-4.26,2.804-6.983,7.037-6.983C34.908,32.622,37.604,35.399,37.604,39.362z M28.06,39.497c0,2.265,0.944,3.963,2.696,3.963
		c1.591,0,2.615-1.591,2.615-3.963c0-1.968-0.755-3.963-2.615-3.963C28.788,35.534,28.06,37.556,28.06,39.497z"/>
	<path fill="#C7414E" d="M45.586,29.144v3.775h2.939v3.02h-2.939v4.772c0,1.591,0.377,2.319,1.618,2.319
		c0.512,0,0.917-0.054,1.213-0.108l0.027,3.101c-0.539,0.216-1.51,0.35-2.669,0.35c-1.321,0-2.427-0.458-3.074-1.132
		c-0.755-0.782-1.132-2.049-1.132-3.909v-5.392h-1.753v-3.02h1.753V30.06L45.586,29.144z"/>
	<path fill="#C7414E" d="M56.192,29.252c0,1.132-0.863,2.049-2.211,2.049c-1.294,0-2.157-0.917-2.13-2.049
		c-0.027-1.186,0.836-2.076,2.157-2.076S56.165,28.065,56.192,29.252z M51.959,46.102V32.918h4.098v13.184H51.959z"/>
	<path fill="#C7414E" d="M73.228,39.362c0,4.826-3.424,7.037-6.956,7.037c-3.855,0-6.821-2.534-6.821-6.794
		c0-4.26,2.804-6.983,7.037-6.983C70.532,32.622,73.228,35.399,73.228,39.362z M63.684,39.497c0,2.265,0.944,3.963,2.696,3.963
		c1.591,0,2.615-1.591,2.615-3.963c0-1.968-0.755-3.963-2.615-3.963C64.412,35.534,63.684,37.556,63.684,39.497z"/>
	<path fill="#C7414E" d="M76.635,37.124c0-1.645-0.054-3.047-0.108-4.206h3.559l0.189,1.806h0.081
		c0.539-0.836,1.887-2.103,4.071-2.103c2.696,0,4.718,1.779,4.718,5.662v7.819h-4.098v-7.307c0-1.699-0.593-2.858-2.076-2.858
		c-1.132,0-1.806,0.782-2.076,1.537c-0.108,0.243-0.162,0.647-0.162,1.025v7.603h-4.098V37.124z"/>
</g>
<g>
	<path fill="#C7414E" d="M12.895,60.614c-0.512,0-0.903,0.04-1.106,0.094v3.532c0.256,0.068,0.58,0.094,0.971,0.094
		c1.416,0,2.278-0.687,2.278-1.941C15.038,61.193,14.189,60.614,12.895,60.614z"/>
	<path fill="#C7414E" d="M10.784,54.097C4.828,54.097,0,58.925,0,64.881c0,5.956,4.828,10.784,10.784,10.784
		c5.956,0,10.784-4.828,10.784-10.784C21.568,58.925,16.74,54.097,10.784,54.097z M8.188,65.831c0,2.413-1.186,3.154-2.75,3.154
		c-0.431,0-0.957-0.094-1.254-0.216l0.175-0.957c0.243,0.094,0.593,0.175,0.984,0.175c1.051,0,1.672-0.472,1.672-2.251v-5.986h1.173
		V65.831z M15.51,64.281c-0.62,0.661-1.631,0.998-2.777,0.998c-0.351,0-0.674-0.014-0.944-0.081v3.64h-1.173v-8.978
		c0.566-0.094,1.308-0.175,2.251-0.175c1.159,0,2.009,0.27,2.548,0.755c0.499,0.431,0.795,1.092,0.795,1.901
		C16.211,63.162,15.969,63.809,15.51,64.281z"/>
</g>
</svg>
